<svg width="170" height="71" viewBox="0 0 170 71" fill="none" xmlns="http://www.w3.org/2000/svg">
<path d="M14.048 26.432C12.104 26.432 10.292 26.12 8.612 25.496C6.956 24.848 5.516 23.936 4.292 22.76C3.068 21.584 2.108 20.204 1.412 18.62C0.74 17.036 0.404 15.296 0.404 13.4C0.404 11.504 0.74 9.764 1.412 8.18C2.108 6.596 3.068 5.216 4.292 4.04C5.54 2.864 6.992 1.964 8.648 1.34C10.304 0.691999 12.116 0.368 14.084 0.368C16.268 0.368 18.236 0.752 19.988 1.52C21.764 2.264 23.252 3.368 24.452 4.832L20.708 8.288C19.844 7.304 18.884 6.572 17.828 6.092C16.772 5.588 15.62 5.336 14.372 5.336C13.196 5.336 12.116 5.528 11.132 5.912C10.148 6.296 9.296 6.848 8.576 7.568C7.856 8.288 7.292 9.14 6.884 10.124C6.5 11.108 6.308 12.2 6.308 13.4C6.308 14.6 6.5 15.692 6.884 16.676C7.292 17.66 7.856 18.512 8.576 19.232C9.296 19.952 10.148 20.504 11.132 20.888C12.116 21.272 13.196 21.464 14.372 21.464C15.62 21.464 16.772 21.224 17.828 20.744C18.884 20.24 19.844 19.484 20.708 18.476L24.452 21.932C23.252 23.396 21.764 24.512 19.988 25.28C18.236 26.048 16.256 26.432 14.048 26.432ZM31.8103 26V0.799998H37.6423V26H31.8103ZM47.0428 26V0.799998H51.8668L66.7348 18.944H64.3948V0.799998H70.1548V26H65.3668L50.4628 7.856H52.8028V26H47.0428ZM84.9011 10.952H97.0331V15.488H84.9011V10.952ZM85.3331 21.32H99.0491V26H79.5371V0.799998H98.5811V5.48H85.3331V21.32ZM107.109 26V0.799998H111.933L122.661 18.584H120.105L130.653 0.799998H135.441L135.513 26H130.041L130.005 9.188H131.013L122.589 23.336H119.961L111.357 9.188H112.581V26H107.109ZM141.6 26L152.832 0.799998H158.592L169.86 26H163.74L154.524 3.752H156.828L147.576 26H141.6ZM147.216 20.6L148.764 16.172H161.724L163.308 20.6H147.216ZM1.988 70V44.8H6.812L17.54 62.584H14.984L25.532 44.8H30.32L30.392 70H24.92L24.884 53.188H25.892L17.468 67.336H14.84L6.236 53.188H7.46V70H1.988ZM48.6108 70.432C46.6188 70.432 44.7708 70.108 43.0668 69.46C41.3868 68.812 39.9228 67.9 38.6748 66.724C37.4508 65.548 36.4908 64.168 35.7948 62.584C35.1228 61 34.7868 59.272 34.7868 57.4C34.7868 55.528 35.1228 53.8 35.7948 52.216C36.4908 50.632 37.4628 49.252 38.7108 48.076C39.9588 46.9 41.4228 45.988 43.1028 45.34C44.7828 44.692 46.6068 44.368 48.5748 44.368C50.5668 44.368 52.3908 44.692 54.0468 45.34C55.7268 45.988 57.1788 46.9 58.4028 48.076C59.6508 49.252 60.6228 50.632 61.3188 52.216C62.0148 53.776 62.3628 55.504 62.3628 57.4C62.3628 59.272 62.0148 61.012 61.3188 62.62C60.6228 64.204 59.6508 65.584 58.4028 66.76C57.1788 67.912 55.7268 68.812 54.0468 69.46C52.3908 70.108 50.5788 70.432 48.6108 70.432ZM48.5748 65.464C49.7028 65.464 50.7348 65.272 51.6708 64.888C52.6308 64.504 53.4708 63.952 54.1908 63.232C54.9108 62.512 55.4628 61.66 55.8468 60.676C56.2548 59.692 56.4588 58.6 56.4588 57.4C56.4588 56.2 56.2548 55.108 55.8468 54.124C55.4628 53.14 54.9108 52.288 54.1908 51.568C53.4948 50.848 52.6668 50.296 51.7068 49.912C50.7468 49.528 49.7028 49.336 48.5748 49.336C47.4468 49.336 46.4028 49.528 45.4428 49.912C44.5068 50.296 43.6788 50.848 42.9588 51.568C42.2388 52.288 41.6748 53.14 41.2668 54.124C40.8828 55.108 40.6908 56.2 40.6908 57.4C40.6908 58.576 40.8828 59.668 41.2668 60.676C41.6748 61.66 42.2268 62.512 42.9228 63.232C43.6428 63.952 44.4828 64.504 45.4428 64.888C46.4028 65.272 47.4468 65.464 48.5748 65.464ZM66.7458 70V44.8H71.5698L86.4378 62.944H84.0978V44.8H89.8578V70H85.0698L70.1658 51.856H72.5058V70H66.7458ZM101.04 64.24L100.716 57.508L112.776 44.8H119.256L108.384 56.5L105.144 59.956L101.04 64.24ZM95.82 70V44.8H101.616V70H95.82ZM113.064 70L104.1 59.02L107.916 54.88L119.868 70H113.064ZM127.832 54.952H139.964V59.488H127.832V54.952ZM128.264 65.32H141.98V70H122.468V44.8H141.512V49.48H128.264V65.32ZM152.639 70V59.704L153.971 63.232L142.883 44.8H149.075L157.571 58.948H154.007L162.539 44.8H168.263L157.175 63.232L158.471 59.704V70H152.639Z" fill="black"/>
</svg>
